<svg width="1600" height="640" viewBox="0 0 1600 640" fill="none" xmlns="http://www.w3.org/2000/svg">
  <rect width="1600" height="640" rx="56" fill="#F5FFF4"/>
  <path d="M0 470C170 404 265 436 405 468C596 512 750 514 936 432C1124 350 1317 292 1600 352V640H0V470Z" fill="#D8F7DA"/>
  <path d="M0 520C230 438 368 520 560 548C740 574 880 520 1037 456C1232 377 1372 408 1600 454V640H0V520Z" fill="#B7ECC0"/>
  <g filter="url(#softShadow)">
    <rect x="170" y="128" width="1260" height="384" rx="48" fill="white" fill-opacity="0.82"/>
    <rect x="171.5" y="129.5" width="1257" height="381" rx="46.5" stroke="#D8EEDF" stroke-width="3"/>
  </g>
  <g transform="translate(252 188)">
    <rect x="0" y="0" width="96" height="96" rx="28" fill="#25B45B"/>
    <path d="M24 50C35 31 61 31 72 50C61 69 35 69 24 50Z" stroke="white" stroke-width="7" stroke-linecap="round" stroke-linejoin="round"/>
    <circle cx="48" cy="50" r="10" fill="white"/>
  </g>
  <text x="252" y="354" fill="#143B25" font-family="-apple-system, BlinkMacSystemFont, 'SF Pro Display', 'Helvetica Neue', Arial, sans-serif" font-size="82" font-weight="800">SleepEye</text>
  <text x="256" y="418" fill="#49765A" font-family="-apple-system, BlinkMacSystemFont, 'SF Pro Text', 'Helvetica Neue', Arial, sans-serif" font-size="32" font-weight="500">A calm macOS break timer that helps your eyes leave the screen.</text>
  <g transform="translate(1010 164)">
    <rect x="0" y="0" width="300" height="300" rx="150" fill="#EAF9EC"/>
    <circle cx="150" cy="150" r="108" stroke="#B7EBC1" stroke-width="18"/>
    <path d="M150 42A108 108 0 0 1 258 150" stroke="#25B45B" stroke-width="18" stroke-linecap="round"/>
    <text x="150" y="138" text-anchor="middle" fill="#143B25" font-family="-apple-system, BlinkMacSystemFont, 'SF Pro Display', 'Helvetica Neue', Arial, sans-serif" font-size="48" font-weight="800">05:00</text>
    <text x="150" y="178" text-anchor="middle" fill="#49765A" font-family="-apple-system, BlinkMacSystemFont, 'SF Pro Text', 'Helvetica Neue', Arial, sans-serif" font-size="20" font-weight="600">break time</text>
  </g>
  <g transform="translate(252 452)" fill="#143B25" font-family="-apple-system, BlinkMacSystemFont, 'SF Pro Text', 'Helvetica Neue', Arial, sans-serif" font-size="22" font-weight="650">
    <rect x="0" y="0" width="148" height="48" rx="24" fill="#E8F8EC"/>
    <text x="74" y="31" text-anchor="middle">Menu Bar</text>
    <rect x="164" y="0" width="178" height="48" rx="24" fill="#E8F8EC"/>
    <text x="253" y="31" text-anchor="middle">Full-screen Rest</text>
    <rect x="358" y="0" width="178" height="48" rx="24" fill="#E8F8EC"/>
    <text x="447" y="31" text-anchor="middle">Custom Rhythm</text>
  </g>
  <defs>
    <filter id="softShadow" x="138" y="104" width="1324" height="448" filterUnits="userSpaceOnUse" color-interpolation-filters="sRGB">
      <feDropShadow dx="0" dy="16" stdDeviation="22" flood-color="#5E936B" flood-opacity="0.18"/>
    </filter>
  </defs>
</svg>
